# xmcd
#
# Track frame offsets:
#	150
#	13652
#	28903
#	39913
#	53893
#	66984
#	80130
#	93222
#	104789
#	116739
#	130843
#	142889
#	155204
#	166874
#	178502
#	191803
#	203348
#	214037
#	228204
#	240882
#	254104
#	269778
#	283913
#	293510
#
# Disc length: 4087 seconds
#
# Revision: 1
# Processed by: cddbd v1.5.2PL0 Copyright (c) Steve Scherf et al.
# Submitted via: audiograbber 1.83.01
#
DISCID=650ff518
DTITLE=The Greatest Country Music Recordings Of All Time - Record 71 and 72
DYEAR=1900
DGENRE=
TTITLE0=Roy Rogers and The Sons Of The Pioneers - Pecos Bill
TTITLE1=The Sons Of THe Pioneers - Home On The Range
TTITLE2=The Jimmy Wakely Trio - Cimarron
TTITLE3=Eddie Dean - On The Banks Of Sunny San Juan
TTITLE4=Bob Wills and His Texas Playboys - Dusty Skies
TTITLE5=Roy Rogers - Along The Navaho Trail
TTITLE6=The Sons Of The Pioneers - Cool Water
TTITLE7=Marty Robbins - Song Of The Bandit
TTITLE8=The Sons Of The Pioneers - The Last Roundup
TTITLE9=Montana Slim - There's A Love Knot In My Lariat
TTITLE10=Louise Massey - My Adobe Hacienda
TTITLE11=Elton Britt - Chime Bells
TTITLE12=Roy Rogers - Yellow Rose Of Texas
TTITLE13=Andy Parker and The Plainsmen - Trail Dust
TTITLE14=The Sons Of THe Pioneers - At The Rainbow's End
TTITLE15=Girls Of The Golden West - My Love's A Rider (Bucking Bronco)
TTITLE16=Eddy Arnold - Cattle Call
TTITLE17=Patsy Montana - I Want To Be A Cowboy's Sweetheart
TTITLE18=Roy Rogers and The Sons Of THe Pioneers - Blue Shadow On The Trail
TTITLE19=The Sons Of The Pioneers - The Devil's Great Grandson
TTITLE20=Girls Of THe Golden West - I Want To Be A Real Cowboy's Girl
TTITLE21=Powder River Jack and Kitty Lee - Tying Knots In The Devil's Tail
TTITLE22=Riders In The Sky - At The End Of The Rainbow Trail
TTITLE23=Roy Rogers and Dale Evans - Happy Trails
EXTD=
EXTT0=
EXTT1=
EXTT2=
EXTT3=
EXTT4=
EXTT5=
EXTT6=
EXTT7=
EXTT8=
EXTT9=
EXTT10=
EXTT11=
EXTT12=
EXTT13=
EXTT14=
EXTT15=
EXTT16=
EXTT17=
EXTT18=
EXTT19=
EXTT20=
EXTT21=
EXTT22=
EXTT23=
PLAYORDER=
